<?xml version="1.0" standalone="no"?>
<!DOCTYPE svg PUBLIC "-//W3C//DTD SVG 20010904//EN"
 "http://www.w3.org/TR/2001/REC-SVG-20010904/DTD/svg10.dtd">
<svg version="1.0" xmlns="http://www.w3.org/2000/svg"
 width="831.000000pt" height="831.000000pt" viewBox="0 0 831.000000 831.000000"
 preserveAspectRatio="xMidYMid meet">
<metadata>
Created by potrace 1.14, written by Peter Selinger 2001-2017
</metadata>
<g transform="translate(0.000000,831.000000) scale(0.100000,-0.100000)"
fill="#000000" stroke="none">
<path d="M3741 8300 c9 -5 76 -35 149 -65 320 -135 767 -356 1080 -533 l125
-71 13 25 c8 14 12 27 10 29 -2 1 -70 41 -153 87 -296 168 -650 343 -974 484
-113 49 -132 54 -195 54 -50 -1 -66 -3 -55 -10z"/>
<path d="M4915 8190 l190 -119 13 25 c8 14 12 27 10 29 -2 2 -68 44 -147 94
-137 86 -147 91 -200 91 l-55 0 189 -120z"/>
<path d="M5170 8306 c0 -2 62 -48 138 -102 478 -340 867 -656 1210 -982 l140
-132 16 24 c15 24 15 25 -137 169 -332 314 -681 599 -1150 935 -115 83 -131
92 -172 92 -25 0 -45 -2 -45 -4z"/>
<path d="M6044 8245 l75 -66 -16 -28 c-25 -42 -12 -56 59 -71 34 -7 73 -18 85
-24 81 -41 661 -613 898 -886 352 -404 661 -863 810 -1198 105 -238 103 -234
125 -222 11 6 20 15 20 19 0 5 -33 83 -74 173 -190 423 -474 848 -863 1294
-163 186 -521 548 -738 746 -139 127 -140 128 -174 213 -36 90 -59 108 -82 63
-6 -13 -13 -25 -15 -27 -1 -2 -25 15 -52 38 -40 34 -56 41 -91 41 l-42 0 75
-65z"/>
<path d="M6796 8098 c116 -117 248 -253 295 -303 204 -216 515 -586 647 -769
72 -100 72 -100 51 -119 -31 -29 -20 -48 55 -92 38 -22 79 -56 93 -75 87 -126
213 -343 325 -560 l38 -74 0 58 c0 54 -6 71 -71 195 -40 75 -94 172 -122 216
-28 44 -72 114 -98 156 -47 75 -50 84 -75 237 -6 37 -35 44 -66 15 -10 -9 -20
-14 -22 -12 -2 2 -36 49 -76 104 -226 308 -496 617 -912 1043 -185 189 -189
192 -230 192 l-42 0 210 -212z"/>
<path d="M7276 8288 c10 -13 22 -25 25 -28 3 -3 77 -88 165 -190 339 -393 543
-656 797 -1029 l37 -53 0 49 c0 46 -6 59 -83 169 -188 271 -416 561 -703 894
-190 221 -179 210 -221 210 l-36 0 19 -22z"/>
<path d="M7967 8298 c6 -7 46 -58 89 -113 43 -55 115 -149 159 -208 l80 -108
3 41 c4 49 4 49 -158 258 -106 136 -112 142 -146 142 -28 0 -34 -3 -27 -12z"/>
<path d="M1420 8271 c-238 -22 -523 -73 -721 -131 -152 -45 -173 -47 -248 -24
-76 22 -86 18 -86 -40 l0 -48 -130 -57 c-72 -31 -154 -70 -182 -86 -47 -27
-53 -34 -53 -62 0 -18 2 -33 4 -33 2 0 35 18 73 39 37 22 122 63 187 91 119
51 135 52 136 13 0 -32 27 -20 85 37 63 62 63 62 206 106 79 24 232 59 339 79
243 44 237 43 345 50 50 4 135 10 190 14 172 14 506 4 830 -25 62 -6 249 -32
415 -60 403 -66 954 -225 1405 -404 684 -273 1245 -600 1735 -1011 408 -342
705 -710 916 -1132 92 -182 190 -454 218 -602 66 -354 76 -533 46 -808 -111
-990 -770 -1798 -1710 -2095 -155 -49 -174 -61 -153 -95 6 -11 40 -3 173 39
327 103 662 292 905 509 138 122 141 126 283 297 143 174 272 390 367 617 293
700 262 1475 -87 2176 -84 168 -242 422 -323 520 -189 228 -249 295 -357 401
-835 819 -2231 1473 -3573 1673 -200 30 -239 34 -390 46 -44 4 -93 8 -110 10
-16 2 -142 6 -280 9 -193 4 -296 1 -455 -13z"/>
<path d="M2030 8057 c-3 -2 -66 -7 -141 -11 -158 -7 -167 -8 -404 -46 -304
-49 -674 -164 -910 -282 -206 -104 -556 -332 -571 -373 -3 -7 -4 -24 -2 -38 3
-23 12 -18 143 79 287 212 648 384 1015 483 102 27 201 52 220 55 19 3 94 15
165 27 203 33 451 47 729 42 138 -2 255 -5 260 -6 6 -1 12 13 14 31 l3 32 -68
0 c-37 0 -153 3 -258 6 -104 4 -192 4 -195 1z"/>
<path d="M2325 7585 c-649 -77 -1237 -328 -1661 -711 -62 -57 -121 -107 -131
-112 -10 -5 -46 -15 -80 -22 -81 -17 -92 -29 -64 -76 26 -43 26 -42 -68 -147
-64 -71 -157 -204 -261 -374 -56 -91 -60 -101 -59 -158 l0 -60 42 81 c82 158
255 407 365 526 31 34 38 37 48 24 17 -25 43 -19 55 12 44 120 53 133 174 246
249 229 609 439 960 559 163 56 476 130 595 142 36 3 125 13 198 21 528 56
1281 -52 1902 -275 l189 -68 6 25 c3 14 2 28 -2 33 -20 19 -368 135 -568 189
-577 154 -1136 204 -1640 145z"/>
<path d="M3080 7130 c-102 -4 -241 -14 -310 -24 -143 -19 -500 -103 -500 -118
0 -5 -4 -7 -9 -4 -5 4 -80 -22 -168 -56 -564 -221 -1046 -655 -1334 -1202 -85
-161 -102 -199 -178 -412 -60 -168 -116 -445 -132 -649 -16 -212 -16 -200 -6
-380 8 -147 8 -152 -18 -224 -14 -40 -25 -85 -23 -100 3 -23 7 -26 43 -26 l40
0 22 -109 c34 -168 126 -428 218 -620 89 -186 245 -444 344 -571 34 -44 89
-114 121 -155 225 -286 645 -667 1055 -956 824 -580 2001 -1120 3190 -1464
201 -58 212 -60 319 -59 90 1 104 3 76 10 -980 268 -1824 586 -2550 962 -1264
654 -2096 1403 -2507 2257 -131 270 -260 687 -221 711 7 5 16 9 21 9 16 0 5
42 -33 122 l-40 83 -6 170 c-44 1124 599 2140 1611 2543 246 99 461 151 785
191 130 17 492 14 680 -4 357 -34 790 -147 1139 -297 1057 -453 1737 -1264
1811 -2159 63 -766 -327 -1515 -997 -1916 -141 -83 -155 -98 -134 -131 13 -21
273 142 425 267 180 148 314 303 450 518 64 101 193 372 211 443 23 88 76 307
79 326 3 13 10 94 16 181 10 123 10 193 0 313 -6 85 -14 162 -17 170 -4 8 -5
19 -4 24 3 13 -67 283 -89 341 -22 60 -76 187 -116 270 -16 33 -70 126 -121
207 -370 591 -1065 1090 -1868 1340 -220 69 -557 142 -730 157 -66 6 -136 13
-156 16 -87 10 -217 12 -389 5z"/>
<path d="M1164 6906 c-188 -131 -398 -325 -543 -501 -103 -125 -108 -129 -181
-160 -41 -18 -76 -39 -78 -47 -2 -8 9 -29 23 -47 l27 -31 -63 -102 c-35 -57
-98 -179 -141 -273 -71 -154 -76 -171 -61 -182 9 -7 20 -13 23 -13 4 0 41 75
84 166 60 130 164 321 192 353 3 3 10 -1 16 -7 30 -30 45 -14 69 79 23 89 27
96 125 218 136 168 344 360 535 493 82 57 149 108 149 114 0 5 -6 18 -13 27
-11 16 -26 8 -163 -87z"/>
<path d="M6475 6880 c-21 -23 -39 0 145 -195 209 -222 464 -573 587 -808 49
-92 50 -98 32 -107 -31 -17 -22 -43 37 -100 30 -30 62 -66 69 -80 41 -78 120
-313 159 -472 89 -367 107 -713 56 -1072 -19 -133 -20 -160 -9 -167 8 -5 19
-9 24 -9 6 0 21 72 35 163 69 467 12 971 -161 1444 -60 164 -61 166 -57 257
l3 91 -30 -1 c-16 0 -37 -4 -46 -8 -12 -5 -27 16 -69 96 -74 141 -236 386
-365 548 -83 105 -380 440 -390 440 -1 0 -10 -9 -20 -20z"/>
<path d="M3311 6779 c-1145 -63 -2032 -796 -2262 -1869 -37 -170 -40 -202 -45
-385 -12 -419 58 -744 249 -1155 52 -112 213 -359 329 -505 355 -450 929 -877
1534 -1145 139 -61 142 -63 198 -131 62 -76 83 -83 99 -34 5 17 11 31 12 33 1
1 65 -20 143 -47 344 -121 774 -216 1142 -252 169 -17 252 -20 475 -16 149 3
286 8 305 11 19 3 79 10 133 16 53 5 180 28 282 50 763 167 1396 600 1827
1250 463 698 647 1610 492 2440 -39 206 -45 230 -57 230 -37 -1 -37 -14 -3
-190 93 -480 83 -932 -29 -1410 -90 -379 -231 -709 -439 -1024 -489 -741
-1236 -1191 -2146 -1295 -187 -21 -576 -27 -730 -12 -52 5 -131 13 -175 16
-97 8 -95 8 -330 51 -104 19 -280 59 -390 89 -213 57 -481 148 -479 162 1 4 4
17 8 28 12 41 -5 47 -90 37 l-79 -10 -150 66 c-82 37 -234 112 -336 168 -1010
552 -1636 1362 -1735 2246 -26 227 -14 477 31 689 40 185 47 210 121 402 73
186 190 387 330 562 423 530 1063 843 1780 871 l175 7 -3 31 c-2 19 -9 31 -18
32 -8 1 -84 -3 -169 -7z"/>
<path d="M3610 6279 c-210 -8 -358 -32 -546 -88 -511 -154 -930 -502 -1163
-969 -39 -79 -69 -147 -66 -152 4 -6 2 -10 -3 -10 -7 0 -74 -220 -87 -291 -15
-78 -34 -305 -30 -364 14 -234 26 -304 87 -510 68 -235 250 -536 456 -757 493
-528 1287 -858 2064 -858 l188 0 0 30 0 30 -193 0 c-106 0 -218 4 -248 9 -30
5 -112 17 -184 26 -187 24 -506 115 -714 204 -682 292 -1189 828 -1347 1426
-158 600 17 1218 473 1666 287 282 660 465 1078 529 153 23 481 29 599 11 34
-6 97 -15 140 -21 131 -20 382 -94 536 -160 308 -132 590 -334 786 -564 54
-64 120 -151 146 -193 46 -76 47 -78 27 -96 -10 -10 -19 -21 -19 -25 0 -3 29
-36 65 -72 55 -56 69 -77 99 -157 22 -58 45 -150 62 -245 23 -134 26 -169 20
-283 -18 -387 -161 -724 -429 -1005 -191 -201 -453 -361 -737 -450 -180 -57
-286 -72 -531 -77 -261 -6 -423 15 -645 83 -619 189 -1078 628 -1220 1164 -34
128 -36 144 -37 310 -2 214 13 305 81 487 72 192 181 357 352 533 55 56 244
188 350 243 248 130 496 187 809 187 219 0 391 -28 590 -95 138 -46 150 -46
151 -3 0 12 -34 28 -139 63 -212 70 -428 101 -697 99 -73 -1 -314 -36 -314
-46 0 -5 -5 -6 -10 -3 -19 12 -267 -75 -396 -138 -294 -146 -507 -356 -686
-678 -47 -85 -115 -306 -133 -434 -16 -109 -16 -273 -1 -406 4 -37 59 -253 65
-259 3 -3 7 -12 9 -20 13 -57 121 -259 193 -359 232 -323 594 -573 1014 -701
196 -60 326 -81 560 -90 162 -7 197 -5 350 17 534 76 971 345 1247 768 165
253 243 506 252 820 4 139 2 177 -19 290 -30 164 -27 154 -64 253 -27 73 -31
96 -31 187 0 112 -6 124 -51 99 -37 -20 -42 -18 -73 39 -77 139 -242 328 -410
468 -333 279 -764 462 -1232 524 -103 14 -194 24 -203 23 -9 -1 -95 -5 -191
-9z"/>
<path d="M3703 5518 c-333 -45 -637 -220 -820 -473 -64 -88 -84 -124 -127
-228 -54 -130 -69 -219 -71 -397 0 -135 -4 -164 -24 -226 -31 -92 -26 -108 35
-101 37 5 46 3 51 -11 28 -79 137 -272 154 -272 5 0 8 -4 7 -9 -6 -19 171
-187 267 -254 281 -198 664 -290 1006 -242 135 19 404 99 392 118 -3 6 -1 7 5
3 6 -4 55 19 109 50 103 61 107 64 216 161 78 69 219 250 212 271 -3 7 -1 11
4 8 4 -3 29 43 54 102 42 98 45 108 30 120 -9 6 -20 12 -23 12 -4 0 -26 -46
-51 -101 -190 -442 -675 -721 -1204 -693 -350 18 -673 161 -906 401 -114 117
-247 339 -211 351 22 7 12 50 -27 124 -36 66 -40 83 -46 168 -22 330 174 688
482 879 109 67 144 84 260 125 162 56 409 82 582 60 188 -23 425 -114 579
-221 83 -58 227 -193 268 -252 56 -79 118 -206 146 -297 17 -57 34 -104 38
-104 3 0 14 6 23 13 16 11 16 19 -12 112 -17 55 -35 101 -41 103 -5 2 -8 8 -5
12 3 5 -24 58 -60 117 -165 275 -443 467 -795 548 -179 42 -310 48 -497 23z"/>
<path d="M4068 5118 l-14 -42 -129 -2 c-94 -2 -130 -6 -136 -16 -6 -9 -9 -10
-9 -1 0 8 -34 1 -100 -23 -123 -42 -235 -114 -308 -197 -54 -62 -136 -211
-128 -233 3 -7 1 -14 -4 -16 -14 -5 -31 -161 -18 -169 7 -5 7 -8 0 -10 -7 -3
-5 -33 7 -90 23 -113 77 -213 166 -307 l69 -74 19 23 c18 22 18 23 -46 88 -83
84 -140 189 -161 296 -66 329 222 644 612 669 116 8 140 2 144 -32 l3 -27 86
3 c81 4 89 2 155 -31 138 -70 257 -210 295 -348 93 -337 -162 -659 -554 -700
-128 -13 -245 7 -370 63 -49 22 -90 38 -92 36 -2 -2 -6 -14 -10 -28 -6 -24 -1
-28 79 -64 47 -21 90 -35 97 -30 7 4 10 3 6 -3 -9 -14 188 -45 244 -39 24 3
70 8 101 11 116 12 290 95 384 184 37 34 114 138 107 145 -4 3 -2 6 4 6 13 0
67 146 59 159 -3 5 -2 11 4 13 5 2 10 45 10 98 1 101 -28 237 -48 233 -6 -2
-9 4 -6 11 6 16 -72 146 -89 146 -5 0 -8 3 -4 6 11 12 -129 124 -204 164 -64
33 -84 51 -124 105 -57 77 -78 82 -97 23z"/>
<path d="M5365 4988 c-11 -6 -21 -12 -23 -13 -1 -1 16 -51 39 -111 59 -157 87
-342 76 -501 -13 -196 -104 -484 -142 -453 -27 23 -42 2 -64 -87 -20 -80 -29
-98 -84 -167 -305 -380 -878 -575 -1418 -481 -79 14 -147 25 -151 25 -5 0 -8
-13 -8 -30 0 -16 2 -30 5 -30 3 0 71 -11 151 -25 471 -81 951 44 1298 337 54
45 122 112 151 148 65 82 75 89 148 121 81 34 88 47 53 94 l-28 37 35 76 c37
80 83 235 92 312 3 25 8 55 10 67 3 11 5 70 5 130 1 138 -28 302 -75 430 -52
143 -47 134 -70 121z"/>
<path d="M3853 4733 c-18 -2 -33 -8 -33 -13 0 -5 -6 -7 -12 -5 -23 9 -122 -65
-155 -115 -31 -47 -32 -48 -12 -66 10 -9 20 -15 22 -13 1 2 19 24 39 49 96
121 289 145 413 52 164 -124 123 -332 -80 -402 -119 -41 -262 6 -332 110 l-35
52 -20 -20 -21 -20 39 -55 c21 -31 42 -53 46 -51 5 3 8 1 8 -5 0 -16 103 -72
123 -67 9 2 17 1 17 -4 0 -4 25 -11 56 -15 43 -5 59 -3 65 7 6 9 9 9 9 1 0 -8
18 -5 60 9 33 11 60 24 60 29 0 5 4 8 9 7 16 -5 93 64 87 79 -3 8 -1 11 4 8
15 -9 61 98 46 107 -8 6 -7 8 2 8 8 0 12 21 12 69 0 47 8 93 26 146 35 105 32
109 -67 102 -44 -3 -86 -11 -94 -17 -12 -10 -18 -10 -30 0 -8 6 -20 8 -26 4
-7 -4 -9 -3 -6 3 14 22 -122 38 -220 26z"/>
<path d="M217 3847 c-17 -11 -15 -24 28 -187 57 -211 150 -452 256 -660 73
-143 80 -161 85 -230 3 -41 7 -85 10 -97 5 -27 35 -31 54 -8 7 8 18 15 25 15
7 0 41 -43 75 -96 l63 -95 20 20 c20 20 20 20 -43 117 -60 89 -63 97 -46 109
29 22 14 50 -54 101 -60 45 -70 59 -137 184 -40 74 -104 214 -142 310 -65 164
-84 221 -142 443 -13 48 -26 87 -29 87 -4 0 -14 -6 -23 -13z"/>
<path d="M7611 3313 c-84 -211 -219 -453 -354 -638 -129 -175 -340 -396 -490
-512 -88 -67 -99 -73 -104 -55 -6 23 -24 34 -40 24 -6 -4 -30 -38 -55 -77 -44
-68 -49 -72 -179 -145 -330 -186 -770 -317 -1194 -355 -100 -9 -432 -12 -510
-5 -44 5 -123 11 -175 14 -77 6 -346 46 -471 72 -23 4 -27 1 -31 -25 l-4 -30
85 -15 c358 -64 593 -86 876 -80 219 5 244 7 460 39 341 50 711 173 980 326
l130 74 90 5 c99 6 99 5 80 81 -6 24 1 32 77 89 45 35 148 127 227 204 297
292 524 648 690 1087 21 53 16 79 -13 79 -7 0 -40 -71 -75 -157z"/>
<path d="M8258 2727 c-20 -41 -78 -139 -128 -217 -87 -137 -90 -143 -74 -162
22 -24 20 -26 126 142 116 184 120 191 116 256 l-3 56 -37 -75z"/>
<path d="M0 2691 c0 -47 7 -67 55 -153 130 -232 384 -581 633 -869 158 -182
499 -529 737 -749 165 -154 171 -160 199 -231 43 -110 52 -118 83 -70 l18 29
70 -60 c39 -33 185 -157 325 -276 140 -118 281 -237 312 -264 52 -44 62 -49
100 -46 l43 3 -185 155 c-102 85 -277 233 -390 330 -113 96 -214 182 -225 191
-14 13 -17 20 -9 30 6 8 14 24 17 37 7 28 -8 36 -90 52 -59 12 -69 18 -185
122 -247 221 -595 574 -793 804 -272 314 -464 580 -632 874 l-83 145 0 -54z"/>
<path d="M2966 2268 c-3 -13 -2 -26 2 -30 18 -18 370 -160 477 -193 66 -20
136 -41 155 -47 20 -6 65 -40 102 -76 57 -55 70 -63 83 -52 8 7 15 23 15 37 0
13 6 26 14 29 8 3 86 -8 173 -24 96 -19 226 -35 333 -42 96 -6 184 -12 195
-13 16 -2 21 5 23 31 l3 32 -68 2 c-37 0 -72 2 -78 3 -5 1 -59 4 -120 8 -60 4
-187 21 -281 39 l-171 31 1 36 c1 42 -7 43 -112 21 l-62 -14 -153 46 c-83 26
-232 81 -331 122 -98 42 -182 76 -186 76 -4 0 -10 -10 -14 -22z"/>
<path d="M0 1985 c0 -83 2 -96 14 -86 11 10 26 -5 77 -76 140 -195 465 -582
684 -813 171 -181 491 -503 747 -751 264 -255 268 -259 310 -259 l42 0 -174
167 c-212 202 -776 765 -880 878 -41 44 -98 105 -125 135 -175 190 -428 496
-546 659 l-76 105 20 28 c21 28 21 29 2 47 -11 10 -37 28 -57 40 l-38 23 0
-97z"/>
<path d="M8240 1956 c-90 -113 -341 -345 -505 -465 -301 -221 -663 -391 -1040
-490 -195 -51 -457 -95 -625 -106 -52 -3 -120 -8 -150 -11 -84 -6 -282 -6
-444 2 l-146 6 0 -30 0 -30 148 -7 c137 -7 500 -1 637 11 33 3 101 11 150 19
50 8 134 21 187 30 159 24 457 111 647 187 381 152 710 369 1012 668 178 175
194 197 187 257 -3 28 -4 27 -58 -41z"/>
<path d="M1202 1759 c-12 -19 -4 -30 125 -153 445 -426 1017 -867 1836 -1415
118 -79 141 -99 165 -141 l27 -50 98 0 c53 0 97 2 97 4 0 2 -15 13 -34 24 -32
19 -34 24 -33 69 l2 48 -81 5 c-93 6 -52 -17 -418 233 -728 496 -1212 874
-1619 1264 -77 73 -142 133 -146 133 -3 0 -12 -9 -19 -21z"/>
<path d="M2736 1554 c-4 -15 -5 -28 -3 -30 15 -15 375 -200 526 -270 568 -264
1316 -498 1846 -579 55 -8 145 -22 200 -31 294 -45 820 -67 1070 -44 61 5 139
13 175 16 311 26 727 132 1035 264 205 88 475 241 620 353 89 68 94 74 94 110
l1 38 -122 -93 c-446 -338 -1070 -565 -1703 -620 -222 -19 -681 -17 -900 5
-894 89 -1838 379 -2655 816 -93 50 -171 91 -174 91 -2 0 -7 -12 -10 -26z"/>
<path d="M0 1257 c0 -42 7 -53 92 -159 202 -248 497 -585 806 -920 153 -167
166 -178 199 -178 l36 0 -19 22 c-10 13 -67 75 -125 138 -354 386 -663 739
-877 1003 l-112 138 0 -44z"/>
<path d="M2759 779 c-8 -17 -8 -24 3 -34 32 -29 520 -329 803 -493 435 -252
436 -252 501 -252 l59 0 -125 71 c-439 249 -790 458 -1082 642 -76 48 -139 87
-142 87 -3 0 -10 -10 -17 -21z"/>
<path d="M8208 564 c-72 -32 -321 -114 -347 -114 -6 0 -11 11 -11 25 0 45 -27
40 -99 -19 l-69 -57 -159 -28 c-163 -30 -208 -36 -328 -47 -38 -3 -99 -10
-135 -15 -70 -9 -654 -4 -812 7 l-98 7 0 -32 0 -31 63 -1 c34 -1 73 -3 87 -5
14 -3 162 -7 330 -10 244 -5 339 -3 475 10 244 24 244 24 427 57 l166 31 73
-27 c89 -32 102 -29 97 27 l-3 42 160 51 c88 29 186 64 218 78 51 23 57 29 57
56 0 17 -3 31 -7 30 -5 0 -43 -16 -85 -35z"/>
<path d="M0 420 c0 -43 6 -52 151 -230 137 -168 154 -185 185 -188 19 -2 34
-1 34 2 0 4 -71 93 -158 199 -86 106 -169 208 -184 227 l-28 35 0 -45z"/>
<path d="M1867 287 c-15 -24 -14 -25 131 -155 141 -126 149 -131 191 -132 24
0 42 2 40 3 -2 2 -74 66 -159 142 -85 76 -162 145 -171 152 -14 12 -18 10 -32
-10z"/>
</g>
</svg>
