<?xml version="1.0" encoding="utf-8" standalone="no"?>
<!DOCTYPE svg PUBLIC "-//W3C//DTD SVG 1.1//EN"
  "http://www.w3.org/Graphics/SVG/1.1/DTD/svg11.dtd">
<!-- Created with matplotlib (https://matplotlib.org/) -->
<svg height="288pt" version="1.1" viewBox="0 0 432 288" width="432pt" xmlns="http://www.w3.org/2000/svg" xmlns:xlink="http://www.w3.org/1999/xlink">
 <defs>
  <style type="text/css">
*{stroke-linecap:butt;stroke-linejoin:round;}
  </style>
 </defs>
 <g id="figure_1">
  <g id="patch_1">
   <path d="M 0 288 
L 432 288 
L 432 0 
L 0 0 
z
" style="fill:#ffffff;"/>
  </g>
  <g id="axes_1">
   <g id="patch_2">
    <path d="M 54 252 
L 388.8 252 
L 388.8 34.56 
L 54 34.56 
z
" style="fill:#ffffff;"/>
   </g>
   <g id="matplotlib.axis_1">
    <g id="xtick_1">
     <g id="line2d_1">
      <defs>
       <path d="M 0 0 
L 0 3.5 
" id="m35c2ba1d81" style="stroke:#000000;stroke-width:0.8;"/>
      </defs>
      <g>
       <use style="stroke:#000000;stroke-width:0.8;" x="69.218182" xlink:href="#m35c2ba1d81" y="252"/>
      </g>
     </g>
     <g id="text_1">
      <!-- 0 -->
      <defs>
       <path d="M 31.78125 66.40625 
Q 24.171875 66.40625 20.328125 58.90625 
Q 16.5 51.421875 16.5 36.375 
Q 16.5 21.390625 20.328125 13.890625 
Q 24.171875 6.390625 31.78125 6.390625 
Q 39.453125 6.390625 43.28125 13.890625 
Q 47.125 21.390625 47.125 36.375 
Q 47.125 51.421875 43.28125 58.90625 
Q 39.453125 66.40625 31.78125 66.40625 
z
M 31.78125 74.21875 
Q 44.046875 74.21875 50.515625 64.515625 
Q 56.984375 54.828125 56.984375 36.375 
Q 56.984375 17.96875 50.515625 8.265625 
Q 44.046875 -1.421875 31.78125 -1.421875 
Q 19.53125 -1.421875 13.0625 8.265625 
Q 6.59375 17.96875 6.59375 36.375 
Q 6.59375 54.828125 13.0625 64.515625 
Q 19.53125 74.21875 31.78125 74.21875 
z
" id="DejaVuSans-48"/>
      </defs>
      <g transform="translate(66.036932 266.598437)scale(0.1 -0.1)">
       <use xlink:href="#DejaVuSans-48"/>
      </g>
     </g>
    </g>
    <g id="xtick_2">
     <g id="line2d_2">
      <g>
       <use style="stroke:#000000;stroke-width:0.8;" x="130.096997" xlink:href="#m35c2ba1d81" y="252"/>
      </g>
     </g>
     <g id="text_2">
      <!-- 2000 -->
      <defs>
       <path d="M 19.1875 8.296875 
L 53.609375 8.296875 
L 53.609375 0 
L 7.328125 0 
L 7.328125 8.296875 
Q 12.9375 14.109375 22.625 23.890625 
Q 32.328125 33.6875 34.8125 36.53125 
Q 39.546875 41.84375 41.421875 45.53125 
Q 43.3125 49.21875 43.3125 52.78125 
Q 43.3125 58.59375 39.234375 62.25 
Q 35.15625 65.921875 28.609375 65.921875 
Q 23.96875 65.921875 18.8125 64.3125 
Q 13.671875 62.703125 7.8125 59.421875 
L 7.8125 69.390625 
Q 13.765625 71.78125 18.9375 73 
Q 24.125 74.21875 28.421875 74.21875 
Q 39.75 74.21875 46.484375 68.546875 
Q 53.21875 62.890625 53.21875 53.421875 
Q 53.21875 48.921875 51.53125 44.890625 
Q 49.859375 40.875 45.40625 35.40625 
Q 44.1875 33.984375 37.640625 27.21875 
Q 31.109375 20.453125 19.1875 8.296875 
z
" id="DejaVuSans-50"/>
      </defs>
      <g transform="translate(117.371997 266.598437)scale(0.1 -0.1)">
       <use xlink:href="#DejaVuSans-50"/>
       <use x="63.623047" xlink:href="#DejaVuSans-48"/>
       <use x="127.246094" xlink:href="#DejaVuSans-48"/>
       <use x="190.869141" xlink:href="#DejaVuSans-48"/>
      </g>
     </g>
    </g>
    <g id="xtick_3">
     <g id="line2d_3">
      <g>
       <use style="stroke:#000000;stroke-width:0.8;" x="190.975812" xlink:href="#m35c2ba1d81" y="252"/>
      </g>
     </g>
     <g id="text_3">
      <!-- 4000 -->
      <defs>
       <path d="M 37.796875 64.3125 
L 12.890625 25.390625 
L 37.796875 25.390625 
z
M 35.203125 72.90625 
L 47.609375 72.90625 
L 47.609375 25.390625 
L 58.015625 25.390625 
L 58.015625 17.1875 
L 47.609375 17.1875 
L 47.609375 0 
L 37.796875 0 
L 37.796875 17.1875 
L 4.890625 17.1875 
L 4.890625 26.703125 
z
" id="DejaVuSans-52"/>
      </defs>
      <g transform="translate(178.250812 266.598437)scale(0.1 -0.1)">
       <use xlink:href="#DejaVuSans-52"/>
       <use x="63.623047" xlink:href="#DejaVuSans-48"/>
       <use x="127.246094" xlink:href="#DejaVuSans-48"/>
       <use x="190.869141" xlink:href="#DejaVuSans-48"/>
      </g>
     </g>
    </g>
    <g id="xtick_4">
     <g id="line2d_4">
      <g>
       <use style="stroke:#000000;stroke-width:0.8;" x="251.854627" xlink:href="#m35c2ba1d81" y="252"/>
      </g>
     </g>
     <g id="text_4">
      <!-- 6000 -->
      <defs>
       <path d="M 33.015625 40.375 
Q 26.375 40.375 22.484375 35.828125 
Q 18.609375 31.296875 18.609375 23.390625 
Q 18.609375 15.53125 22.484375 10.953125 
Q 26.375 6.390625 33.015625 6.390625 
Q 39.65625 6.390625 43.53125 10.953125 
Q 47.40625 15.53125 47.40625 23.390625 
Q 47.40625 31.296875 43.53125 35.828125 
Q 39.65625 40.375 33.015625 40.375 
z
M 52.59375 71.296875 
L 52.59375 62.3125 
Q 48.875 64.0625 45.09375 64.984375 
Q 41.3125 65.921875 37.59375 65.921875 
Q 27.828125 65.921875 22.671875 59.328125 
Q 17.53125 52.734375 16.796875 39.40625 
Q 19.671875 43.65625 24.015625 45.921875 
Q 28.375 48.1875 33.59375 48.1875 
Q 44.578125 48.1875 50.953125 41.515625 
Q 57.328125 34.859375 57.328125 23.390625 
Q 57.328125 12.15625 50.6875 5.359375 
Q 44.046875 -1.421875 33.015625 -1.421875 
Q 20.359375 -1.421875 13.671875 8.265625 
Q 6.984375 17.96875 6.984375 36.375 
Q 6.984375 53.65625 15.1875 63.9375 
Q 23.390625 74.21875 37.203125 74.21875 
Q 40.921875 74.21875 44.703125 73.484375 
Q 48.484375 72.75 52.59375 71.296875 
z
" id="DejaVuSans-54"/>
      </defs>
      <g transform="translate(239.129627 266.598437)scale(0.1 -0.1)">
       <use xlink:href="#DejaVuSans-54"/>
       <use x="63.623047" xlink:href="#DejaVuSans-48"/>
       <use x="127.246094" xlink:href="#DejaVuSans-48"/>
       <use x="190.869141" xlink:href="#DejaVuSans-48"/>
      </g>
     </g>
    </g>
    <g id="xtick_5">
     <g id="line2d_5">
      <g>
       <use style="stroke:#000000;stroke-width:0.8;" x="312.733442" xlink:href="#m35c2ba1d81" y="252"/>
      </g>
     </g>
     <g id="text_5">
      <!-- 8000 -->
      <defs>
       <path d="M 31.78125 34.625 
Q 24.75 34.625 20.71875 30.859375 
Q 16.703125 27.09375 16.703125 20.515625 
Q 16.703125 13.921875 20.71875 10.15625 
Q 24.75 6.390625 31.78125 6.390625 
Q 38.8125 6.390625 42.859375 10.171875 
Q 46.921875 13.96875 46.921875 20.515625 
Q 46.921875 27.09375 42.890625 30.859375 
Q 38.875 34.625 31.78125 34.625 
z
M 21.921875 38.8125 
Q 15.578125 40.375 12.03125 44.71875 
Q 8.5 49.078125 8.5 55.328125 
Q 8.5 64.0625 14.71875 69.140625 
Q 20.953125 74.21875 31.78125 74.21875 
Q 42.671875 74.21875 48.875 69.140625 
Q 55.078125 64.0625 55.078125 55.328125 
Q 55.078125 49.078125 51.53125 44.71875 
Q 48 40.375 41.703125 38.8125 
Q 48.828125 37.15625 52.796875 32.3125 
Q 56.78125 27.484375 56.78125 20.515625 
Q 56.78125 9.90625 50.3125 4.234375 
Q 43.84375 -1.421875 31.78125 -1.421875 
Q 19.734375 -1.421875 13.25 4.234375 
Q 6.78125 9.90625 6.78125 20.515625 
Q 6.78125 27.484375 10.78125 32.3125 
Q 14.796875 37.15625 21.921875 38.8125 
z
M 18.3125 54.390625 
Q 18.3125 48.734375 21.84375 45.5625 
Q 25.390625 42.390625 31.78125 42.390625 
Q 38.140625 42.390625 41.71875 45.5625 
Q 45.3125 48.734375 45.3125 54.390625 
Q 45.3125 60.0625 41.71875 63.234375 
Q 38.140625 66.40625 31.78125 66.40625 
Q 25.390625 66.40625 21.84375 63.234375 
Q 18.3125 60.0625 18.3125 54.390625 
z
" id="DejaVuSans-56"/>
      </defs>
      <g transform="translate(300.008442 266.598437)scale(0.1 -0.1)">
       <use xlink:href="#DejaVuSans-56"/>
       <use x="63.623047" xlink:href="#DejaVuSans-48"/>
       <use x="127.246094" xlink:href="#DejaVuSans-48"/>
       <use x="190.869141" xlink:href="#DejaVuSans-48"/>
      </g>
     </g>
    </g>
    <g id="xtick_6">
     <g id="line2d_6">
      <g>
       <use style="stroke:#000000;stroke-width:0.8;" x="373.612258" xlink:href="#m35c2ba1d81" y="252"/>
      </g>
     </g>
     <g id="text_6">
      <!-- 10000 -->
      <defs>
       <path d="M 12.40625 8.296875 
L 28.515625 8.296875 
L 28.515625 63.921875 
L 10.984375 60.40625 
L 10.984375 69.390625 
L 28.421875 72.90625 
L 38.28125 72.90625 
L 38.28125 8.296875 
L 54.390625 8.296875 
L 54.390625 0 
L 12.40625 0 
z
" id="DejaVuSans-49"/>
      </defs>
      <g transform="translate(357.706008 266.598437)scale(0.1 -0.1)">
       <use xlink:href="#DejaVuSans-49"/>
       <use x="63.623047" xlink:href="#DejaVuSans-48"/>
       <use x="127.246094" xlink:href="#DejaVuSans-48"/>
       <use x="190.869141" xlink:href="#DejaVuSans-48"/>
       <use x="254.492188" xlink:href="#DejaVuSans-48"/>
      </g>
     </g>
    </g>
    <g id="text_7">
     <!-- epoch -->
     <defs>
      <path d="M 56.203125 29.59375 
L 56.203125 25.203125 
L 14.890625 25.203125 
Q 15.484375 15.921875 20.484375 11.0625 
Q 25.484375 6.203125 34.421875 6.203125 
Q 39.59375 6.203125 44.453125 7.46875 
Q 49.3125 8.734375 54.109375 11.28125 
L 54.109375 2.78125 
Q 49.265625 0.734375 44.1875 -0.34375 
Q 39.109375 -1.421875 33.890625 -1.421875 
Q 20.796875 -1.421875 13.15625 6.1875 
Q 5.515625 13.8125 5.515625 26.8125 
Q 5.515625 40.234375 12.765625 48.109375 
Q 20.015625 56 32.328125 56 
Q 43.359375 56 49.78125 48.890625 
Q 56.203125 41.796875 56.203125 29.59375 
z
M 47.21875 32.234375 
Q 47.125 39.59375 43.09375 43.984375 
Q 39.0625 48.390625 32.421875 48.390625 
Q 24.90625 48.390625 20.390625 44.140625 
Q 15.875 39.890625 15.1875 32.171875 
z
" id="DejaVuSans-101"/>
      <path d="M 18.109375 8.203125 
L 18.109375 -20.796875 
L 9.078125 -20.796875 
L 9.078125 54.6875 
L 18.109375 54.6875 
L 18.109375 46.390625 
Q 20.953125 51.265625 25.265625 53.625 
Q 29.59375 56 35.59375 56 
Q 45.5625 56 51.78125 48.09375 
Q 58.015625 40.1875 58.015625 27.296875 
Q 58.015625 14.40625 51.78125 6.484375 
Q 45.5625 -1.421875 35.59375 -1.421875 
Q 29.59375 -1.421875 25.265625 0.953125 
Q 20.953125 3.328125 18.109375 8.203125 
z
M 48.6875 27.296875 
Q 48.6875 37.203125 44.609375 42.84375 
Q 40.53125 48.484375 33.40625 48.484375 
Q 26.265625 48.484375 22.1875 42.84375 
Q 18.109375 37.203125 18.109375 27.296875 
Q 18.109375 17.390625 22.1875 11.75 
Q 26.265625 6.109375 33.40625 6.109375 
Q 40.53125 6.109375 44.609375 11.75 
Q 48.6875 17.390625 48.6875 27.296875 
z
" id="DejaVuSans-112"/>
      <path d="M 30.609375 48.390625 
Q 23.390625 48.390625 19.1875 42.75 
Q 14.984375 37.109375 14.984375 27.296875 
Q 14.984375 17.484375 19.15625 11.84375 
Q 23.34375 6.203125 30.609375 6.203125 
Q 37.796875 6.203125 41.984375 11.859375 
Q 46.1875 17.53125 46.1875 27.296875 
Q 46.1875 37.015625 41.984375 42.703125 
Q 37.796875 48.390625 30.609375 48.390625 
z
M 30.609375 56 
Q 42.328125 56 49.015625 48.375 
Q 55.71875 40.765625 55.71875 27.296875 
Q 55.71875 13.875 49.015625 6.21875 
Q 42.328125 -1.421875 30.609375 -1.421875 
Q 18.84375 -1.421875 12.171875 6.21875 
Q 5.515625 13.875 5.515625 27.296875 
Q 5.515625 40.765625 12.171875 48.375 
Q 18.84375 56 30.609375 56 
z
" id="DejaVuSans-111"/>
      <path d="M 48.78125 52.59375 
L 48.78125 44.1875 
Q 44.96875 46.296875 41.140625 47.34375 
Q 37.3125 48.390625 33.40625 48.390625 
Q 24.65625 48.390625 19.8125 42.84375 
Q 14.984375 37.3125 14.984375 27.296875 
Q 14.984375 17.28125 19.8125 11.734375 
Q 24.65625 6.203125 33.40625 6.203125 
Q 37.3125 6.203125 41.140625 7.25 
Q 44.96875 8.296875 48.78125 10.40625 
L 48.78125 2.09375 
Q 45.015625 0.34375 40.984375 -0.53125 
Q 36.96875 -1.421875 32.421875 -1.421875 
Q 20.0625 -1.421875 12.78125 6.34375 
Q 5.515625 14.109375 5.515625 27.296875 
Q 5.515625 40.671875 12.859375 48.328125 
Q 20.21875 56 33.015625 56 
Q 37.15625 56 41.109375 55.140625 
Q 45.0625 54.296875 48.78125 52.59375 
z
" id="DejaVuSans-99"/>
      <path d="M 54.890625 33.015625 
L 54.890625 0 
L 45.90625 0 
L 45.90625 32.71875 
Q 45.90625 40.484375 42.875 44.328125 
Q 39.84375 48.1875 33.796875 48.1875 
Q 26.515625 48.1875 22.3125 43.546875 
Q 18.109375 38.921875 18.109375 30.90625 
L 18.109375 0 
L 9.078125 0 
L 9.078125 75.984375 
L 18.109375 75.984375 
L 18.109375 46.1875 
Q 21.34375 51.125 25.703125 53.5625 
Q 30.078125 56 35.796875 56 
Q 45.21875 56 50.046875 50.171875 
Q 54.890625 44.34375 54.890625 33.015625 
z
" id="DejaVuSans-104"/>
     </defs>
     <g transform="translate(206.171875 280.276563)scale(0.1 -0.1)">
      <use xlink:href="#DejaVuSans-101"/>
      <use x="61.523438" xlink:href="#DejaVuSans-112"/>
      <use x="125" xlink:href="#DejaVuSans-111"/>
      <use x="186.181641" xlink:href="#DejaVuSans-99"/>
      <use x="241.162109" xlink:href="#DejaVuSans-104"/>
     </g>
    </g>
   </g>
   <g id="matplotlib.axis_2">
    <g id="ytick_1">
     <g id="line2d_7">
      <defs>
       <path d="M 0 0 
L -3.5 0 
" id="m53c9cdd2a1" style="stroke:#000000;stroke-width:0.8;"/>
      </defs>
      <g>
       <use style="stroke:#000000;stroke-width:0.8;" x="54" xlink:href="#m53c9cdd2a1" y="242.498503"/>
      </g>
     </g>
     <g id="text_8">
      <!-- 0.00 -->
      <defs>
       <path d="M 10.6875 12.40625 
L 21 12.40625 
L 21 0 
L 10.6875 0 
z
" id="DejaVuSans-46"/>
      </defs>
      <g transform="translate(24.734375 246.297721)scale(0.1 -0.1)">
       <use xlink:href="#DejaVuSans-48"/>
       <use x="63.623047" xlink:href="#DejaVuSans-46"/>
       <use x="95.410156" xlink:href="#DejaVuSans-48"/>
       <use x="159.033203" xlink:href="#DejaVuSans-48"/>
      </g>
     </g>
    </g>
    <g id="ytick_2">
     <g id="line2d_8">
      <g>
       <use style="stroke:#000000;stroke-width:0.8;" x="54" xlink:href="#m53c9cdd2a1" y="214.726724"/>
      </g>
     </g>
     <g id="text_9">
      <!-- 0.02 -->
      <g transform="translate(24.734375 218.525943)scale(0.1 -0.1)">
       <use xlink:href="#DejaVuSans-48"/>
       <use x="63.623047" xlink:href="#DejaVuSans-46"/>
       <use x="95.410156" xlink:href="#DejaVuSans-48"/>
       <use x="159.033203" xlink:href="#DejaVuSans-50"/>
      </g>
     </g>
    </g>
    <g id="ytick_3">
     <g id="line2d_9">
      <g>
       <use style="stroke:#000000;stroke-width:0.8;" x="54" xlink:href="#m53c9cdd2a1" y="186.954946"/>
      </g>
     </g>
     <g id="text_10">
      <!-- 0.04 -->
      <g transform="translate(24.734375 190.754165)scale(0.1 -0.1)">
       <use xlink:href="#DejaVuSans-48"/>
       <use x="63.623047" xlink:href="#DejaVuSans-46"/>
       <use x="95.410156" xlink:href="#DejaVuSans-48"/>
       <use x="159.033203" xlink:href="#DejaVuSans-52"/>
      </g>
     </g>
    </g>
    <g id="ytick_4">
     <g id="line2d_10">
      <g>
       <use style="stroke:#000000;stroke-width:0.8;" x="54" xlink:href="#m53c9cdd2a1" y="159.183168"/>
      </g>
     </g>
     <g id="text_11">
      <!-- 0.06 -->
      <g transform="translate(24.734375 162.982386)scale(0.1 -0.1)">
       <use xlink:href="#DejaVuSans-48"/>
       <use x="63.623047" xlink:href="#DejaVuSans-46"/>
       <use x="95.410156" xlink:href="#DejaVuSans-48"/>
       <use x="159.033203" xlink:href="#DejaVuSans-54"/>
      </g>
     </g>
    </g>
    <g id="ytick_5">
     <g id="line2d_11">
      <g>
       <use style="stroke:#000000;stroke-width:0.8;" x="54" xlink:href="#m53c9cdd2a1" y="131.411389"/>
      </g>
     </g>
     <g id="text_12">
      <!-- 0.08 -->
      <g transform="translate(24.734375 135.210608)scale(0.1 -0.1)">
       <use xlink:href="#DejaVuSans-48"/>
       <use x="63.623047" xlink:href="#DejaVuSans-46"/>
       <use x="95.410156" xlink:href="#DejaVuSans-48"/>
       <use x="159.033203" xlink:href="#DejaVuSans-56"/>
      </g>
     </g>
    </g>
    <g id="ytick_6">
     <g id="line2d_12">
      <g>
       <use style="stroke:#000000;stroke-width:0.8;" x="54" xlink:href="#m53c9cdd2a1" y="103.639611"/>
      </g>
     </g>
     <g id="text_13">
      <!-- 0.10 -->
      <g transform="translate(24.734375 107.43883)scale(0.1 -0.1)">
       <use xlink:href="#DejaVuSans-48"/>
       <use x="63.623047" xlink:href="#DejaVuSans-46"/>
       <use x="95.410156" xlink:href="#DejaVuSans-49"/>
       <use x="159.033203" xlink:href="#DejaVuSans-48"/>
      </g>
     </g>
    </g>
    <g id="ytick_7">
     <g id="line2d_13">
      <g>
       <use style="stroke:#000000;stroke-width:0.8;" x="54" xlink:href="#m53c9cdd2a1" y="75.867832"/>
      </g>
     </g>
     <g id="text_14">
      <!-- 0.12 -->
      <g transform="translate(24.734375 79.667051)scale(0.1 -0.1)">
       <use xlink:href="#DejaVuSans-48"/>
       <use x="63.623047" xlink:href="#DejaVuSans-46"/>
       <use x="95.410156" xlink:href="#DejaVuSans-49"/>
       <use x="159.033203" xlink:href="#DejaVuSans-50"/>
      </g>
     </g>
    </g>
    <g id="ytick_8">
     <g id="line2d_14">
      <g>
       <use style="stroke:#000000;stroke-width:0.8;" x="54" xlink:href="#m53c9cdd2a1" y="48.096054"/>
      </g>
     </g>
     <g id="text_15">
      <!-- 0.14 -->
      <g transform="translate(24.734375 51.895273)scale(0.1 -0.1)">
       <use xlink:href="#DejaVuSans-48"/>
       <use x="63.623047" xlink:href="#DejaVuSans-46"/>
       <use x="95.410156" xlink:href="#DejaVuSans-49"/>
       <use x="159.033203" xlink:href="#DejaVuSans-52"/>
      </g>
     </g>
    </g>
    <g id="text_16">
     <!-- loss(epoch) -->
     <defs>
      <path d="M 9.421875 75.984375 
L 18.40625 75.984375 
L 18.40625 0 
L 9.421875 0 
z
" id="DejaVuSans-108"/>
      <path d="M 44.28125 53.078125 
L 44.28125 44.578125 
Q 40.484375 46.53125 36.375 47.5 
Q 32.28125 48.484375 27.875 48.484375 
Q 21.1875 48.484375 17.84375 46.4375 
Q 14.5 44.390625 14.5 40.28125 
Q 14.5 37.15625 16.890625 35.375 
Q 19.28125 33.59375 26.515625 31.984375 
L 29.59375 31.296875 
Q 39.15625 29.25 43.1875 25.515625 
Q 47.21875 21.78125 47.21875 15.09375 
Q 47.21875 7.46875 41.1875 3.015625 
Q 35.15625 -1.421875 24.609375 -1.421875 
Q 20.21875 -1.421875 15.453125 -0.5625 
Q 10.6875 0.296875 5.421875 2 
L 5.421875 11.28125 
Q 10.40625 8.6875 15.234375 7.390625 
Q 20.0625 6.109375 24.8125 6.109375 
Q 31.15625 6.109375 34.5625 8.28125 
Q 37.984375 10.453125 37.984375 14.40625 
Q 37.984375 18.0625 35.515625 20.015625 
Q 33.0625 21.96875 24.703125 23.78125 
L 21.578125 24.515625 
Q 13.234375 26.265625 9.515625 29.90625 
Q 5.8125 33.546875 5.8125 39.890625 
Q 5.8125 47.609375 11.28125 51.796875 
Q 16.75 56 26.8125 56 
Q 31.78125 56 36.171875 55.265625 
Q 40.578125 54.546875 44.28125 53.078125 
z
" id="DejaVuSans-115"/>
      <path d="M 31 75.875 
Q 24.46875 64.65625 21.28125 53.65625 
Q 18.109375 42.671875 18.109375 31.390625 
Q 18.109375 20.125 21.3125 9.0625 
Q 24.515625 -2 31 -13.1875 
L 23.1875 -13.1875 
Q 15.875 -1.703125 12.234375 9.375 
Q 8.59375 20.453125 8.59375 31.390625 
Q 8.59375 42.28125 12.203125 53.3125 
Q 15.828125 64.359375 23.1875 75.875 
z
" id="DejaVuSans-40"/>
      <path d="M 8.015625 75.875 
L 15.828125 75.875 
Q 23.140625 64.359375 26.78125 53.3125 
Q 30.421875 42.28125 30.421875 31.390625 
Q 30.421875 20.453125 26.78125 9.375 
Q 23.140625 -1.703125 15.828125 -13.1875 
L 8.015625 -13.1875 
Q 14.5 -2 17.703125 9.0625 
Q 20.90625 20.125 20.90625 31.390625 
Q 20.90625 42.671875 17.703125 53.65625 
Q 14.5 64.65625 8.015625 75.875 
z
" id="DejaVuSans-41"/>
     </defs>
     <g transform="translate(18.654687 172.0675)rotate(-90)scale(0.1 -0.1)">
      <use xlink:href="#DejaVuSans-108"/>
      <use x="27.783203" xlink:href="#DejaVuSans-111"/>
      <use x="88.964844" xlink:href="#DejaVuSans-115"/>
      <use x="141.064453" xlink:href="#DejaVuSans-115"/>
      <use x="193.164062" xlink:href="#DejaVuSans-40"/>
      <use x="232.177734" xlink:href="#DejaVuSans-101"/>
      <use x="293.701172" xlink:href="#DejaVuSans-112"/>
      <use x="357.177734" xlink:href="#DejaVuSans-111"/>
      <use x="418.359375" xlink:href="#DejaVuSans-99"/>
      <use x="473.339844" xlink:href="#DejaVuSans-104"/>
      <use x="536.71875" xlink:href="#DejaVuSans-41"/>
     </g>
    </g>
   </g>
   <g id="line2d_15">
    <path clip-path="url(#p393cb42e4c)" d="M 69.218182 44.443636 
L 70.192243 51.935729 
L 71.196743 58.00573 
L 72.292562 63.308405 
L 73.571017 68.3933 
L 75.184306 73.857193 
L 77.467261 80.746809 
L 81.880975 93.172966 
L 89.125554 112.868812 
L 95.974421 130.901261 
L 102.397136 147.173064 
L 107.632714 159.871051 
L 112.411701 170.925733 
L 116.855855 180.669459 
L 121.178251 189.582375 
L 124.891858 196.753997 
L 128.696784 203.613395 
L 132.197316 209.489482 
L 136.063121 215.527277 
L 140.23332 221.590665 
L 144.920988 228.00223 
L 152.287325 237.646378 
L 155.757418 242.116364 
L 155.818296 241.538923 
L 155.940054 241.614764 
L 156.031372 241.682419 
L 156.061812 241.634996 
L 156.214009 241.669025 
L 156.366206 241.64672 
L 156.579282 241.662853 
L 156.853236 241.649328 
L 157.127191 241.661095 
L 157.462024 241.650286 
L 157.796858 241.660548 
L 158.131691 241.650649 
L 158.466525 241.660434 
L 158.801358 241.650704 
L 159.197071 241.660291 
L 159.592783 241.650758 
L 159.988495 241.660294 
L 160.384208 241.650759 
L 160.77992 241.660294 
L 161.175632 241.650759 
L 161.571344 241.660294 
L 161.967057 241.650759 
L 162.362769 241.660294 
L 162.758481 241.650759 
L 163.154194 241.660294 
L 163.549906 241.650759 
L 163.945618 241.660294 
L 164.34133 241.650759 
L 164.737043 241.660294 
L 165.132755 241.650759 
L 165.528467 241.660294 
L 165.92418 241.650759 
L 166.319892 241.660294 
L 166.715604 241.650759 
L 167.111317 241.660294 
L 167.507029 241.650759 
L 167.902741 241.660294 
L 168.298453 241.650759 
L 168.694166 241.660294 
L 169.089878 241.650759 
L 169.48559 241.660294 
L 169.881303 241.650759 
L 170.277015 241.660294 
L 170.672727 241.650759 
L 171.06844 241.660294 
L 171.464152 241.650759 
L 171.859864 241.660294 
L 172.255576 241.650759 
L 172.651289 241.660294 
L 173.047001 241.650759 
L 173.442713 241.660294 
L 173.838426 241.650759 
L 174.234138 241.660294 
L 174.62985 241.650759 
L 175.025563 241.660294 
L 175.421275 241.650759 
L 175.816987 241.660294 
L 176.212699 241.650759 
L 176.608412 241.660294 
L 177.004124 241.650759 
L 177.399836 241.660294 
L 177.795549 241.650759 
L 178.191261 241.660294 
L 178.586973 241.650759 
L 178.982686 241.660294 
L 179.378398 241.650759 
L 179.77411 241.660294 
L 180.169822 241.650759 
L 180.565535 241.660294 
L 180.961247 241.650759 
L 181.356959 241.660294 
L 181.752672 241.650759 
L 182.148384 241.660294 
L 182.544096 241.650759 
L 182.939809 241.660294 
L 183.335521 241.650759 
L 183.731233 241.660294 
L 184.126945 241.650759 
L 184.522658 241.660294 
L 184.91837 241.650759 
L 185.314082 241.660294 
L 185.709795 241.650759 
L 186.105507 241.660294 
L 186.501219 241.650759 
L 186.896932 241.660294 
L 187.292644 241.650759 
L 187.688356 241.660294 
L 188.084068 241.650759 
L 188.479781 241.660294 
L 188.875493 241.650759 
L 189.271205 241.660294 
L 189.666918 241.650759 
L 190.06263 241.660294 
L 190.458342 241.650759 
L 190.854054 241.660294 
L 191.249767 241.650759 
L 191.645479 241.660294 
L 192.041191 241.650759 
L 192.436904 241.660294 
L 192.832616 241.650759 
L 193.228328 241.660294 
L 193.624041 241.650759 
L 194.019753 241.660294 
L 194.415465 241.650759 
L 194.811177 241.660294 
L 195.20689 241.650759 
L 195.602602 241.660294 
L 195.998314 241.650759 
L 196.394027 241.660294 
L 196.789739 241.650759 
L 197.185451 241.660294 
L 197.581164 241.650759 
L 197.976876 241.660294 
L 198.372588 241.650759 
L 198.7683 241.660294 
L 199.164013 241.650759 
L 199.559725 241.660294 
L 199.955437 241.650759 
L 200.35115 241.660294 
L 200.746862 241.650759 
L 201.142574 241.660294 
L 201.538287 241.650759 
L 201.933999 241.660294 
L 202.329711 241.650759 
L 202.725423 241.660294 
L 203.121136 241.650759 
L 203.516848 241.660294 
L 203.91256 241.650759 
L 204.308273 241.660294 
L 204.703985 241.650759 
L 205.099697 241.660294 
L 205.49541 241.650759 
L 205.891122 241.660294 
L 206.286834 241.650759 
L 206.682546 241.660294 
L 207.078259 241.650759 
L 207.473971 241.660294 
L 207.869683 241.650759 
L 208.265396 241.660294 
L 208.661108 241.650759 
L 209.05682 241.660294 
L 209.452533 241.650759 
L 209.848245 241.660294 
L 210.243957 241.650759 
L 210.639669 241.660294 
L 211.035382 241.650759 
L 211.431094 241.660294 
L 211.826806 241.650759 
L 212.222519 241.660294 
L 212.618231 241.650759 
L 213.013943 241.660294 
L 213.409656 241.650759 
L 213.805368 241.660294 
L 214.20108 241.650759 
L 214.596792 241.660294 
L 214.992505 241.650759 
L 215.388217 241.660294 
L 215.783929 241.650759 
L 216.179642 241.660294 
L 216.575354 241.650759 
L 216.971066 241.660294 
L 217.366778 241.650759 
L 217.762491 241.660294 
L 218.158203 241.650759 
L 218.553915 241.660294 
L 218.949628 241.650759 
L 219.34534 241.660294 
L 219.741052 241.650759 
L 220.136765 241.660294 
L 220.532477 241.650759 
L 220.928189 241.660294 
L 221.323901 241.650759 
L 221.719614 241.660294 
L 222.115326 241.650759 
L 222.511038 241.660294 
L 222.906751 241.650759 
L 223.302463 241.660294 
L 223.698175 241.650759 
L 224.093888 241.660294 
L 224.4896 241.650759 
L 224.885312 241.660294 
L 225.281024 241.650759 
L 225.676737 241.660294 
L 226.072449 241.650759 
L 226.468161 241.660294 
L 226.863874 241.650759 
L 227.259586 241.660294 
L 227.655298 241.650759 
L 228.051011 241.660294 
L 228.446723 241.650759 
L 228.842435 241.660294 
L 229.238147 241.650759 
L 229.63386 241.660294 
L 230.029572 241.650759 
L 230.425284 241.660294 
L 230.820997 241.650759 
L 231.216709 241.660294 
L 231.612421 241.650759 
L 232.008134 241.660294 
L 232.403846 241.650759 
L 232.799558 241.660294 
L 233.19527 241.650759 
L 233.590983 241.660294 
L 233.986695 241.650759 
L 234.382407 241.660294 
L 234.77812 241.650759 
L 235.173832 241.660294 
L 235.569544 241.650759 
L 235.965257 241.660294 
L 236.360969 241.650759 
L 236.756681 241.660294 
L 237.152393 241.650759 
L 237.548106 241.660294 
L 237.943818 241.650759 
L 238.33953 241.660294 
L 238.735243 241.650759 
L 239.130955 241.660294 
L 239.526667 241.650759 
L 239.92238 241.660294 
L 240.318092 241.650759 
L 240.713804 241.660294 
L 241.109516 241.650759 
L 241.505229 241.660294 
L 241.900941 241.650759 
L 242.296653 241.660294 
L 242.692366 241.650759 
L 243.088078 241.660294 
L 243.48379 241.650759 
L 243.879502 241.660294 
L 244.275215 241.650759 
L 244.670927 241.660294 
L 245.066639 241.650759 
L 245.462352 241.660294 
L 245.858064 241.650759 
L 246.253776 241.660294 
L 246.649489 241.650759 
L 247.045201 241.660294 
L 247.440913 241.650759 
L 247.836625 241.660294 
L 248.232338 241.650759 
L 248.62805 241.660294 
L 249.023762 241.650759 
L 249.419475 241.660294 
L 249.815187 241.650759 
L 250.210899 241.660294 
L 250.606612 241.650759 
L 251.002324 241.660294 
L 251.398036 241.650759 
L 251.793748 241.660294 
L 252.189461 241.650759 
L 252.585173 241.660294 
L 252.980885 241.650759 
L 253.376598 241.660294 
L 253.77231 241.650759 
L 254.168022 241.660294 
L 254.563735 241.650759 
L 254.959447 241.660294 
L 255.355159 241.650759 
L 255.750871 241.660294 
L 256.146584 241.650759 
L 256.542296 241.660294 
L 256.938008 241.650759 
L 257.333721 241.660294 
L 257.729433 241.650759 
L 258.125145 241.660294 
L 258.520858 241.650759 
L 258.91657 241.660294 
L 259.312282 241.650759 
L 259.707994 241.660294 
L 260.103707 241.650759 
L 260.499419 241.660294 
L 260.895131 241.650759 
L 261.290844 241.660294 
L 261.686556 241.650759 
L 262.082268 241.660294 
L 262.477981 241.650759 
L 262.873693 241.660294 
L 263.269405 241.650759 
L 263.665117 241.660294 
L 264.06083 241.650759 
L 264.456542 241.660294 
L 264.852254 241.650759 
L 265.247967 241.660294 
L 265.643679 241.650759 
L 266.039391 241.660294 
L 266.435104 241.650759 
L 266.830816 241.660294 
L 267.226528 241.650759 
L 267.62224 241.660294 
L 268.017953 241.650759 
L 268.413665 241.660294 
L 268.809377 241.650759 
L 269.20509 241.660294 
L 269.600802 241.650759 
L 269.996514 241.660294 
L 270.392226 241.650759 
L 270.787939 241.660294 
L 271.183651 241.650759 
L 271.579363 241.660294 
L 271.975076 241.650759 
L 272.370788 241.660294 
L 272.7665 241.650759 
L 273.162213 241.660294 
L 273.557925 241.650759 
L 273.953637 241.660294 
L 274.349349 241.650759 
L 274.745062 241.660294 
L 275.140774 241.650759 
L 275.536486 241.660294 
L 275.932199 241.650759 
L 276.327911 241.660294 
L 276.723623 241.650759 
L 277.119336 241.660294 
L 277.515048 241.650759 
L 277.91076 241.660294 
L 278.306472 241.650759 
L 278.702185 241.660294 
L 279.097897 241.650759 
L 279.493609 241.660294 
L 279.889322 241.650759 
L 280.285034 241.660294 
L 280.680746 241.650759 
L 281.076459 241.660294 
L 281.472171 241.650759 
L 281.867883 241.660294 
L 282.263595 241.650759 
L 282.659308 241.660294 
L 283.05502 241.650759 
L 283.450732 241.660294 
L 283.846445 241.650759 
L 284.242157 241.660294 
L 284.637869 241.650759 
L 285.033582 241.660294 
L 285.429294 241.650759 
L 285.825006 241.660294 
L 286.220718 241.650759 
L 286.616431 241.660294 
L 287.012143 241.650759 
L 287.407855 241.660294 
L 287.803568 241.650759 
L 288.19928 241.660294 
L 288.594992 241.650759 
L 288.990705 241.660294 
L 289.386417 241.650759 
L 289.782129 241.660294 
L 290.177841 241.650759 
L 290.573554 241.660294 
L 290.969266 241.650759 
L 291.364978 241.660294 
L 291.760691 241.650759 
L 292.156403 241.660294 
L 292.552115 241.650759 
L 292.947828 241.660294 
L 293.34354 241.650759 
L 293.739252 241.660294 
L 294.134964 241.650759 
L 294.530677 241.660294 
L 294.926389 241.650759 
L 295.322101 241.660294 
L 295.717814 241.650759 
L 296.113526 241.660294 
L 296.509238 241.650759 
L 296.90495 241.660294 
L 297.300663 241.650759 
L 297.696375 241.660294 
L 298.092087 241.650759 
L 298.4878 241.660294 
L 298.883512 241.650759 
L 299.279224 241.660294 
L 299.674937 241.650759 
L 300.070649 241.660294 
L 300.466361 241.650759 
L 300.862073 241.660294 
L 301.257786 241.650759 
L 301.653498 241.660294 
L 302.04921 241.650759 
L 302.444923 241.660294 
L 302.840635 241.650759 
L 303.236347 241.660294 
L 303.63206 241.650759 
L 304.027772 241.660294 
L 304.423484 241.650759 
L 304.819196 241.660294 
L 305.214909 241.650759 
L 305.610621 241.660294 
L 306.006333 241.650759 
L 306.402046 241.660294 
L 306.797758 241.650759 
L 307.19347 241.660294 
L 307.589183 241.650759 
L 307.984895 241.660294 
L 308.380607 241.650759 
L 308.776319 241.660294 
L 309.172032 241.650759 
L 309.567744 241.660294 
L 309.963456 241.650759 
L 310.359169 241.660294 
L 310.754881 241.650759 
L 311.150593 241.660294 
L 311.546306 241.650759 
L 311.942018 241.660294 
L 312.33773 241.650759 
L 312.733442 241.660294 
L 313.129155 241.650759 
L 313.524867 241.660294 
L 313.920579 241.650759 
L 314.316292 241.660294 
L 314.712004 241.650759 
L 315.107716 241.660294 
L 315.503429 241.650759 
L 315.899141 241.660294 
L 316.294853 241.650759 
L 316.690565 241.660294 
L 317.086278 241.650759 
L 317.48199 241.660294 
L 317.877702 241.650759 
L 318.273415 241.660294 
L 318.669127 241.650759 
L 319.064839 241.660294 
L 319.460552 241.650759 
L 319.856264 241.660294 
L 320.251976 241.650759 
L 320.647688 241.660294 
L 321.043401 241.650759 
L 321.439113 241.660294 
L 321.834825 241.650759 
L 322.230538 241.660294 
L 322.62625 241.650759 
L 323.021962 241.660294 
L 323.417674 241.650759 
L 323.813387 241.660294 
L 324.209099 241.650759 
L 324.604811 241.660294 
L 325.000524 241.650759 
L 325.396236 241.660294 
L 325.791948 241.650759 
L 326.187661 241.660294 
L 326.583373 241.650759 
L 326.979085 241.660294 
L 327.374797 241.650759 
L 327.77051 241.660294 
L 328.166222 241.650759 
L 328.561934 241.660294 
L 328.957647 241.650759 
L 329.353359 241.660294 
L 329.749071 241.650759 
L 330.144784 241.660294 
L 330.540496 241.650759 
L 330.936208 241.660294 
L 331.33192 241.650759 
L 331.727633 241.660294 
L 332.123345 241.650759 
L 332.519057 241.660294 
L 332.91477 241.650759 
L 333.310482 241.660294 
L 333.706194 241.650759 
L 334.101907 241.660294 
L 334.497619 241.650759 
L 334.893331 241.660294 
L 335.289043 241.650759 
L 335.684756 241.660294 
L 336.080468 241.650759 
L 336.47618 241.660294 
L 336.871893 241.650759 
L 337.267605 241.660294 
L 337.663317 241.650759 
L 338.05903 241.660294 
L 338.454742 241.650759 
L 338.850454 241.660294 
L 339.246166 241.650759 
L 339.641879 241.660294 
L 340.037591 241.650759 
L 340.433303 241.660294 
L 340.829016 241.650759 
L 341.224728 241.660294 
L 341.62044 241.650759 
L 342.016153 241.660294 
L 342.411865 241.650759 
L 342.807577 241.660294 
L 343.203289 241.650759 
L 343.599002 241.660294 
L 343.994714 241.650759 
L 344.390426 241.660294 
L 344.786139 241.650759 
L 345.181851 241.660294 
L 345.577563 241.650759 
L 345.973276 241.660294 
L 346.368988 241.650759 
L 346.7647 241.660294 
L 347.160412 241.650759 
L 347.556125 241.660294 
L 347.951837 241.650759 
L 348.347549 241.660294 
L 348.743262 241.650759 
L 349.138974 241.660294 
L 349.534686 241.650759 
L 349.930398 241.660294 
L 350.326111 241.650759 
L 350.721823 241.660294 
L 351.117535 241.650759 
L 351.513248 241.660294 
L 351.90896 241.650759 
L 352.304672 241.660294 
L 352.700385 241.650759 
L 353.096097 241.660294 
L 353.491809 241.650759 
L 353.887521 241.660294 
L 354.283234 241.650759 
L 354.678946 241.660294 
L 355.074658 241.650759 
L 355.470371 241.660294 
L 355.866083 241.650759 
L 356.261795 241.660294 
L 356.657508 241.650759 
L 357.05322 241.660294 
L 357.448932 241.650759 
L 357.844644 241.660294 
L 358.240357 241.650759 
L 358.636069 241.660294 
L 359.031781 241.650759 
L 359.427494 241.660294 
L 359.823206 241.650759 
L 360.218918 241.660294 
L 360.614631 241.650759 
L 361.010343 241.660294 
L 361.406055 241.650759 
L 361.801767 241.660294 
L 362.19748 241.650759 
L 362.593192 241.660294 
L 362.988904 241.650759 
L 363.384617 241.660294 
L 363.780329 241.650759 
L 364.176041 241.660294 
L 364.571754 241.650759 
L 364.967466 241.660294 
L 365.363178 241.650759 
L 365.75889 241.660294 
L 366.154603 241.650759 
L 366.550315 241.660294 
L 366.946027 241.650759 
L 367.34174 241.660294 
L 367.737452 241.650759 
L 368.133164 241.660294 
L 368.528877 241.650759 
L 368.924589 241.660294 
L 369.320301 241.650759 
L 369.716013 241.660294 
L 370.111726 241.650759 
L 370.507438 241.660294 
L 370.90315 241.650759 
L 371.298863 241.660294 
L 371.694575 241.650759 
L 372.090287 241.660294 
L 372.486 241.650759 
L 372.881712 241.660294 
L 373.277424 241.650759 
L 373.581818 241.650759 
L 373.581818 241.650759 
" style="fill:none;stroke:#1f77b4;stroke-linecap:square;stroke-width:1.5;"/>
   </g>
   <g id="patch_3">
    <path d="M 54 252 
L 54 34.56 
" style="fill:none;stroke:#000000;stroke-linecap:square;stroke-linejoin:miter;stroke-width:0.8;"/>
   </g>
   <g id="patch_4">
    <path d="M 388.8 252 
L 388.8 34.56 
" style="fill:none;stroke:#000000;stroke-linecap:square;stroke-linejoin:miter;stroke-width:0.8;"/>
   </g>
   <g id="patch_5">
    <path d="M 54 252 
L 388.8 252 
" style="fill:none;stroke:#000000;stroke-linecap:square;stroke-linejoin:miter;stroke-width:0.8;"/>
   </g>
   <g id="patch_6">
    <path d="M 54 34.56 
L 388.8 34.56 
" style="fill:none;stroke:#000000;stroke-linecap:square;stroke-linejoin:miter;stroke-width:0.8;"/>
   </g>
  </g>
 </g>
 <defs>
  <clipPath id="p393cb42e4c">
   <rect height="217.44" width="334.8" x="54" y="34.56"/>
  </clipPath>
 </defs>
</svg>
